# xmcd
#
# Track frame offsets: 
#        150
#        19440
#        37617
#        58580
#        82690
#        98867
#        118835
#        138280
#        166437
#        185832
#        196865
#        214310
#
# Disc length: 3132 seconds
#
# Revision: 0
# Processed by: cddbd v1.5.2PL0 Copyright (c) Steve Scherf et al.
# Submitted via: ExactAudioCopyFreeDBPlugin 1.0
#
DISCID=a10c3a0c
DTITLE=Various Artist - A Soul Product of our Environment SONY MUSIC 
DTITLE=Celebrates Black History
DYEAR=1997
DGENRE=R&B
TTITLE0=Allure feat Nas - Head Over Heels
TTITLE1=Kaycee Grogan - So In Love (Single Version)
TTITLE2=Patti Labelle - You Are My Friend
TTITLE3=Sylk 130 - Getting' Into It (Brother ? Mix)
TTITLE4=Buckshot Lefonque - Another Day
TTITLE5=Simone Hines - Yeah Yeah Yeah
TTITLE6=Grover Washington, Jr. - Soulful Strut
TTITLE7=Teena Marie - Ooo La La La (12-Inch Version)
TTITLE8=Total Commitment - Whisper in the Dark
TTITLE9=Hadda Brooks - Jump Back Honey
TTITLE10=Frankie - One Last Time
TTITLE11=Aretha Franklin - This Bitter Earth
EXTD=
EXTT0=
EXTT1=
EXTT2=
EXTT3=
EXTT4=
EXTT5=
EXTT6=
EXTT7=
EXTT8=
EXTT9=
EXTT10=
EXTT11=
PLAYORDER=
